<svg width="95" height="24" viewBox="0 0 95 24" fill="none" xmlns="http://www.w3.org/2000/svg">
<path d="M11.6372 8.44633H12.4331C13.9679 8.44633 15.4401 7.83823 16.5258 6.75596L20.7344 1.88297H18.2823C17.6465 1.88297 17.042 2.15629 16.6233 2.63139L13.2658 6.4432V0H10.9315V6.5872L7.44702 2.63323C7.02744 2.15721 6.42293 1.88389 5.78805 1.88389H3.33778L7.54363 6.75688C8.62936 7.83915 10.1016 8.44724 11.6363 8.44724L11.6372 8.44633Z" fill="white"/>
<path d="M12.435 15.5518H11.6391C10.1043 15.5518 8.63212 16.1599 7.54639 17.2422L3.33778 22.1152H5.78989C6.42569 22.1152 7.0302 21.8419 7.44886 21.3668L10.8064 17.555V24H13.1407V17.4128L16.6242 21.3677C17.0438 21.8437 17.6483 22.1161 18.2832 22.1161H20.7335L16.5276 17.2431C15.4419 16.1608 13.9697 15.5528 12.435 15.5528V15.5518Z" fill="white"/>
<path d="M1.88992 18.2271V20.6696L6.77849 16.4772C7.86422 15.3949 8.47426 13.9274 8.47426 12.3975V11.6042C8.47426 10.0743 7.86422 8.60683 6.77849 7.52456L1.88992 3.32845V5.77274C1.88992 6.40651 2.16411 7.0091 2.64165 7.42642L6.46565 10.7732H0V13.1001H6.60827L2.64073 16.5726C2.16319 16.9908 1.889 17.5934 1.889 18.2262L1.88992 18.2271Z" fill="white"/>
<path d="M17.4655 10.897L21.4331 7.42458C21.9106 7.00635 22.1839 6.40376 22.1839 5.7709V3.32845L17.2953 7.52089C16.2096 8.60316 15.5996 10.0707 15.5996 11.6005V12.3939C15.5996 13.9237 16.2096 15.3912 17.2953 16.4735L22.1839 20.6687V18.2244C22.1839 17.5906 21.9097 16.988 21.4331 16.5707L17.6091 13.2239H24.0747V10.897H17.4655Z" fill="white"/>
<path d="M36.7065 20.2105C35.2778 20.2105 34.0213 19.8899 32.9372 19.2485C31.858 18.6021 31.0145 17.6855 30.4066 16.4987C29.7986 15.3069 29.4946 13.8929 29.4946 12.2566C29.4946 11.0042 29.677 9.88561 30.0418 8.90084C30.4066 7.91607 30.9157 7.08028 31.5693 6.39347C32.2228 5.7016 32.9853 5.17639 33.8567 4.81784C34.7281 4.45423 35.6729 4.27243 36.6912 4.27243C37.5525 4.27243 38.358 4.39868 39.1078 4.65119C39.8627 4.89864 40.5365 5.25215 41.1293 5.71171C41.722 6.17126 42.2084 6.71667 42.5884 7.34794C42.9734 7.9792 43.2242 8.67611 43.3407 9.43868H40.4681C40.3516 9.02962 40.1794 8.66096 39.9514 8.33271C39.7234 8.00445 39.4473 7.72669 39.1231 7.49944C38.7988 7.26714 38.434 7.09291 38.0287 6.97675C37.6285 6.85555 37.1953 6.79495 36.7292 6.79495C35.8882 6.79495 35.1359 7.00453 34.4722 7.42369C33.8086 7.84285 33.2842 8.45896 32.8992 9.27202C32.5192 10.08 32.3292 11.0648 32.3292 12.2263C32.3292 13.398 32.5141 14.3903 32.884 15.2034C33.2589 16.0164 33.7756 16.6351 34.4342 17.0593C35.0928 17.4784 35.8553 17.688 36.7216 17.688C37.5322 17.688 38.2339 17.5289 38.8267 17.2108C39.4194 16.8926 39.8754 16.4507 40.1946 15.8851C40.5188 15.3195 40.6809 14.668 40.6809 13.9307L41.1825 14.0747H37.0028V11.8779H43.4547V19.9984H41.4333L41.2281 18.1804H41.1445C40.5973 18.8319 39.9666 19.3343 39.2522 19.6878C38.5379 20.0363 37.6893 20.2105 36.7065 20.2105Z" fill="white"/>
<path d="M45.8549 4.48453H48.6058V16.6654C48.6058 17.0997 48.6717 17.4103 48.8034 17.5971C48.9352 17.784 49.1682 17.8723 49.5026 17.8622C49.685 17.8572 49.8217 17.8471 49.9129 17.8319C50.0092 17.8117 50.0953 17.7915 50.1713 17.7713L50.6273 19.8469C50.4652 19.8974 50.2625 19.9454 50.0193 19.9909C49.7812 20.0363 49.4874 20.0641 49.1378 20.0742C48.0232 20.1045 47.1974 19.8722 46.6604 19.3773C46.1234 18.8824 45.8549 18.1274 45.8549 17.1123V4.48453Z" fill="white"/>
<path d="M56.1166 20.203C55.1996 20.203 54.3789 19.9681 53.6544 19.4985C52.9299 19.0288 52.3575 18.347 51.937 17.4532C51.5165 16.5593 51.3062 15.4735 51.3062 14.1959C51.3062 12.903 51.519 11.8122 51.9446 10.9234C52.3752 10.0295 52.9553 9.35535 53.6848 8.90084C54.4143 8.44128 55.2275 8.2115 56.1242 8.2115C56.8082 8.2115 57.3705 8.32766 57.8113 8.55996C58.252 8.78721 58.6016 9.06244 58.86 9.38565C59.1184 9.70381 59.3185 10.0043 59.4603 10.2871H59.5743V8.36301H62.3329V19.9984H59.6275V18.1652H59.4603C59.3185 18.448 59.1133 18.7485 58.8448 19.0667C58.5763 19.3798 58.2216 19.6474 57.7809 19.8696C57.3401 20.0919 56.7854 20.203 56.1166 20.203ZM56.8841 17.9531C57.4668 17.9531 57.9633 17.7966 58.3736 17.4835C58.784 17.1653 59.0956 16.7234 59.3083 16.1578C59.5211 15.5922 59.6275 14.9332 59.6275 14.1807C59.6275 13.4283 59.5211 12.7743 59.3083 12.2188C59.1006 11.6632 58.7916 11.2315 58.3812 10.9234C57.9759 10.6153 57.4769 10.4613 56.8841 10.4613C56.2711 10.4613 55.7594 10.6204 55.3491 10.9386C54.9387 11.2567 54.6297 11.6961 54.422 12.2566C54.2142 12.8172 54.1104 13.4586 54.1104 14.1807C54.1104 14.9079 54.2142 15.5569 54.422 16.1275C54.6347 16.6931 54.9463 17.1401 55.3567 17.4683C55.7721 17.7915 56.2813 17.9531 56.8841 17.9531Z" fill="white"/>
<path d="M69.382 20.203C68.465 20.203 67.6443 19.9681 66.9198 19.4985C66.1953 19.0288 65.6228 18.347 65.2023 17.4532C64.7818 16.5593 64.5716 15.4735 64.5716 14.1959C64.5716 12.903 64.7844 11.8122 65.2099 10.9234C65.6406 10.0295 66.2207 9.35535 66.9502 8.90084C67.6797 8.44128 68.4929 8.2115 69.3896 8.2115C70.0735 8.2115 70.6359 8.32766 71.0767 8.55996C71.5174 8.78721 71.867 9.06244 72.1254 9.38565C72.3838 9.70381 72.5839 10.0043 72.7257 10.2871H72.8397V4.48453H75.5983V19.9984H72.8929V18.1652H72.7257C72.5839 18.448 72.3787 18.7485 72.1102 19.0667C71.8417 19.3798 71.487 19.6474 71.0463 19.8696C70.6055 20.0919 70.0507 20.203 69.382 20.203ZM70.1495 17.9531C70.7322 17.9531 71.2286 17.7966 71.639 17.4835C72.0494 17.1653 72.361 16.7234 72.5737 16.1578C72.7865 15.5922 72.8929 14.9332 72.8929 14.1807C72.8929 13.4283 72.7865 12.7743 72.5737 12.2188C72.366 11.6632 72.057 11.2315 71.6466 10.9234C71.2413 10.6153 70.7423 10.4613 70.1495 10.4613C69.5365 10.4613 69.0248 10.6204 68.6145 10.9386C68.2041 11.2567 67.8951 11.6961 67.6873 12.2566C67.4796 12.8172 67.3758 13.4586 67.3758 14.1807C67.3758 14.9079 67.4796 15.5569 67.6873 16.1275C67.9001 16.6931 68.2117 17.1401 68.6221 17.4683C69.0375 17.7915 69.5467 17.9531 70.1495 17.9531Z" fill="white"/>
<path d="M78.3157 19.9984V8.36301H81.0667V19.9984H78.3157ZM79.6988 6.71163C79.2631 6.71163 78.8882 6.5677 78.5741 6.27984C78.26 5.98694 78.103 5.63595 78.103 5.2269C78.103 4.81279 78.26 4.46181 78.5741 4.17395C78.8882 3.88105 79.2631 3.73459 79.6988 3.73459C80.1396 3.73459 80.5145 3.88105 80.8235 4.17395C81.1376 4.46181 81.2947 4.81279 81.2947 5.2269C81.2947 5.63595 81.1376 5.98694 80.8235 6.27984C80.5145 6.5677 80.1396 6.71163 79.6988 6.71163Z" fill="white"/>
<path d="M88.0132 20.203C87.0962 20.203 86.2755 19.9681 85.551 19.4985C84.8266 19.0288 84.2541 18.347 83.8336 17.4532C83.4131 16.5593 83.2028 15.4735 83.2028 14.1959C83.2028 12.903 83.4156 11.8122 83.8412 10.9234C84.2718 10.0295 84.8519 9.35535 85.5814 8.90084C86.311 8.44128 87.1241 8.2115 88.0208 8.2115C88.7048 8.2115 89.2671 8.32766 89.7079 8.55996C90.1487 8.78721 90.4982 9.06244 90.7566 9.38565C91.015 9.70381 91.2151 10.0043 91.3569 10.2871H91.4709V8.36301H94.2295V19.9984H91.5241V18.1652H91.3569C91.2151 18.448 91.0099 18.7485 90.7414 19.0667C90.4729 19.3798 90.1182 19.6474 89.6775 19.8696C89.2367 20.0919 88.682 20.203 88.0132 20.203ZM88.7808 17.9531C89.3634 17.9531 89.8599 17.7966 90.2702 17.4835C90.6806 17.1653 90.9922 16.7234 91.205 16.1578C91.4177 15.5922 91.5241 14.9332 91.5241 14.1807C91.5241 13.4283 91.4177 12.7743 91.205 12.2188C90.9972 11.6632 90.6882 11.2315 90.2778 10.9234C89.8725 10.6153 89.3735 10.4613 88.7808 10.4613C88.1677 10.4613 87.6561 10.6204 87.2457 10.9386C86.8353 11.2567 86.5263 11.6961 86.3186 12.2566C86.1108 12.8172 86.007 13.4586 86.007 14.1807C86.007 14.9079 86.1108 15.5569 86.3186 16.1275C86.5313 16.6931 86.8429 17.1401 87.2533 17.4683C87.6687 17.7915 88.1779 17.9531 88.7808 17.9531Z" fill="white"/>
</svg>
