<svg width="128" height="20" viewBox="0 0 128 20" fill="none" xmlns="http://www.w3.org/2000/svg">
<path d="M18.5714 0C19.3304 0 20 0.669643 20 1.47321V18.5714C20 19.375 19.3304 20 18.5714 20H1.38393C0.625 20 0 19.375 0 18.5714V1.47321C0 0.669643 0.625 0 1.38393 0H18.5714ZM6.02679 17.1429V7.63393H3.08036V17.1429H6.02679ZM4.55357 6.29464C5.49107 6.29464 6.25 5.53571 6.25 4.59821C6.25 3.66071 5.49107 2.85714 4.55357 2.85714C3.57143 2.85714 2.8125 3.66071 2.8125 4.59821C2.8125 5.53571 3.57143 6.29464 4.55357 6.29464ZM17.1429 17.1429V11.9196C17.1429 9.375 16.5625 7.36607 13.5714 7.36607C12.1429 7.36607 11.1607 8.16964 10.7589 8.92857H10.7143V7.63393H7.90179V17.1429H10.8482V12.4554C10.8482 11.2054 11.0714 10 12.6339 10C14.1518 10 14.1518 11.4286 14.1518 12.5V17.1429H17.1429Z" fill="#727272"/>
<g clip-path="url(#clip0_5109_258)">
<rect width="20" height="20" transform="translate(36)" fill="black"/>
<path d="M52.9548 3.65391C55.2006 6.98862 56.3235 10.7317 55.9152 15.0532C55.9152 15.0532 55.9152 15.0872 55.8812 15.0872C54.384 16.2101 52.6826 17.0608 50.8791 17.6053C50.8451 17.6393 50.8451 17.6053 50.811 17.6053C50.4367 17.0608 50.0965 16.5164 49.7902 15.9379C49.7902 15.9039 49.7902 15.9039 49.7902 15.8698L49.8242 15.8358C50.3687 15.6317 50.8791 15.3935 51.3895 15.0872C51.3895 15.0872 51.4235 15.0872 51.4235 15.0532C51.4235 15.0192 51.4235 15.0192 51.3895 14.9851C51.2874 14.9171 51.1854 14.849 51.0833 14.7469C51.0492 14.7469 51.0492 14.7469 51.0152 14.7469C47.7826 16.2441 44.2437 16.2441 40.977 14.7469C40.943 14.7469 40.909 14.7469 40.909 14.7469C40.8069 14.849 40.7048 14.9171 40.6027 14.9851C40.5687 15.0192 40.5687 15.0192 40.5687 15.0532C40.5687 15.0872 40.5687 15.0872 40.6027 15.0872C41.0791 15.3935 41.6236 15.6317 42.168 15.8358C42.168 15.8358 42.168 15.8698 42.202 15.8698C42.202 15.9039 42.202 15.9039 42.202 15.9379C41.8958 16.5164 41.5555 17.0608 41.1812 17.6053C41.1472 17.6053 41.1131 17.6393 41.1131 17.6053C39.3097 17.0608 37.6083 16.2101 36.1111 15.0872C36.077 15.0872 36.077 15.0532 36.077 15.0532C35.7368 11.3101 36.4514 7.53306 39.0375 3.65391C39.0375 3.65391 39.0375 3.65391 39.0715 3.65391C40.3645 3.04141 41.7256 2.63308 43.1208 2.39488C43.1548 2.36086 43.1888 2.39488 43.1888 2.39488C43.393 2.73516 43.5631 3.10947 43.6993 3.44974C45.2305 3.21155 46.7617 3.21155 48.293 3.44974C48.4291 3.10947 48.5992 2.73516 48.8034 2.39488C48.8034 2.39488 48.8374 2.36086 48.8715 2.39488C50.2666 2.63308 51.6277 3.04141 52.9208 3.65391C52.9548 3.65391 52.9548 3.65391 52.9548 3.65391ZM42.6784 12.7733C43.6652 12.7733 44.4819 11.8546 44.4819 10.7657C44.4819 9.64278 43.6993 8.75806 42.6784 8.75806C41.6916 8.75806 40.875 9.64278 40.875 10.7657C40.875 11.8546 41.6916 12.7733 42.6784 12.7733ZM49.3138 12.7733C50.3347 12.7733 51.1173 11.8546 51.1173 10.7657C51.1513 9.64278 50.3347 8.75806 49.3138 8.75806C48.327 8.75806 47.5444 9.64278 47.5444 10.7657C47.5444 11.8546 48.327 12.7733 49.3138 12.7733Z" fill="#727272"/>
</g>
<g clip-path="url(#clip1_5109_258)">
<rect width="20" height="20" transform="translate(72)" fill="black"/>
<path d="M81.5834 0.833313C76.5214 0.833313 72.4167 4.93887 72.4167 10.0035C72.4167 14.0552 75.0432 17.4926 78.6854 18.7051C79.1436 18.79 79.3118 18.5062 79.3118 18.264C79.3118 18.0453 79.3033 17.323 79.2993 16.5567C76.7491 17.1114 76.211 15.4747 76.211 15.4747C75.794 14.4148 75.1932 14.1329 75.1932 14.1329C74.3615 13.5638 75.2559 13.5755 75.2559 13.5755C76.1764 13.6402 76.6611 14.5205 76.6611 14.5205C77.4786 15.9224 78.8055 15.5171 79.3286 15.2828C79.4109 14.6901 79.6484 14.2856 79.9106 14.0566C77.8745 13.8247 75.7342 13.0384 75.7342 9.52459C75.7342 8.52341 76.0923 7.70537 76.6787 7.06317C76.5835 6.8322 76.2697 5.8995 76.7675 4.63637C76.7675 4.63637 77.5372 4.38991 79.289 5.57636C80.0202 5.37317 80.8044 5.27128 81.5834 5.26779C82.3624 5.27128 83.1472 5.37317 83.8798 5.57636C85.6294 4.38991 86.3981 4.63637 86.3981 4.63637C86.8971 5.8995 86.5832 6.8322 86.488 7.06317C87.0757 7.70537 87.4314 8.52341 87.4314 9.52459C87.4314 13.0467 85.287 13.8222 83.2457 14.0493C83.5745 14.3338 83.8675 14.8919 83.8675 15.7475C83.8675 16.9745 83.8569 17.962 83.8569 18.264C83.8569 18.508 84.0219 18.794 84.4865 18.7039C88.1268 17.49 90.75 14.0538 90.75 10.0035C90.75 4.93887 86.6458 0.833313 81.5834 0.833313ZM75.8499 13.8965C75.8297 13.9421 75.7581 13.9557 75.6928 13.9244C75.6263 13.8945 75.589 13.8324 75.6105 13.7867C75.6302 13.7398 75.702 13.7267 75.7684 13.7582C75.835 13.7881 75.873 13.8508 75.8499 13.8965ZM76.3008 14.299C76.2571 14.3395 76.1716 14.3207 76.1136 14.2566C76.0537 14.1927 76.0424 14.1072 76.0868 14.066C76.1319 14.0255 76.2147 14.0445 76.2748 14.1084C76.3348 14.1731 76.3465 14.258 76.3008 14.299ZM76.6101 14.814C76.554 14.853 76.4621 14.8164 76.4054 14.7348C76.3492 14.6533 76.3492 14.5555 76.4066 14.5163C76.4635 14.4771 76.554 14.5124 76.6115 14.5933C76.6675 14.6762 76.6675 14.774 76.6101 14.814ZM77.1333 15.4104C77.083 15.4658 76.976 15.4509 76.8977 15.3753C76.8176 15.3013 76.7952 15.1964 76.8456 15.141C76.8965 15.0854 77.0041 15.101 77.083 15.176C77.1626 15.2498 77.1869 15.3555 77.1333 15.4104ZM77.8094 15.6117C77.7873 15.6835 77.6842 15.7162 77.5804 15.6857C77.4767 15.6542 77.4088 15.5701 77.4298 15.4975C77.4513 15.4252 77.5549 15.3912 77.6594 15.4239C77.763 15.4551 77.831 15.5387 77.8094 15.6117ZM78.5789 15.6971C78.5815 15.7727 78.4934 15.8354 78.3844 15.8368C78.2748 15.8392 78.1862 15.778 78.185 15.7036C78.185 15.6272 78.271 15.5651 78.3806 15.5633C78.4896 15.5612 78.5789 15.6219 78.5789 15.6971ZM79.3348 15.6681C79.3478 15.7419 79.2721 15.8177 79.1639 15.8379C79.0574 15.8573 78.9589 15.8118 78.9454 15.7386C78.9322 15.663 79.0093 15.5872 79.1156 15.5676C79.224 15.5488 79.321 15.5931 79.3348 15.6681Z" fill="#727272"/>
</g>
<rect width="20" height="20" transform="translate(108)" fill="black"/>
<path d="M123.272 1.66669H126.083L119.941 8.72652L127.167 18.3334H121.509L117.078 12.5069L112.008 18.3334H109.195L115.765 10.7821L108.833 1.66669H114.634L118.64 6.99233L123.272 1.66669ZM122.285 16.641H123.843L113.788 3.27011H112.116L122.285 16.641Z" fill="#727272"/>
<defs>
<clipPath id="clip0_5109_258">
<rect width="20" height="20" fill="white" transform="translate(36)"/>
</clipPath>
<clipPath id="clip1_5109_258">
<rect width="20" height="20" fill="white" transform="translate(72)"/>
</clipPath>
</defs>
</svg>
